<svg width="100" height="100" viewBox="0 0 26.458 26.458" xmlns="http://www.w3.org/2000/svg"><defs><clipPath clipPathUnits="userSpaceOnUse" id="a"><path style="fill:#141a31;fill-opacity:.4;stroke:#000;stroke-width:0;stroke-opacity:.416413;stop-color:#000" d="M-18.57 7.833a1.665 1.665 0 0 0-1.665 1.665 1.665 1.665 0 0 0 1.665 1.665 1.665 1.665 0 0 0 1.666-1.665 1.665 1.665 0 0 0-1.666-1.665zm-4.192.022a1.407 1.407 0 0 0-.737.21h-1.047v3.33h3.02v-1.46a1.407 1.407 0 0 0 .171-.673 1.407 1.407 0 0 0-.17-.672v-.525h-.498a1.407 1.407 0 0 0-.739-.21zm5.57 3.875v.399a1.665 1.665 0 0 0-.653-.134 1.665 1.665 0 0 0-1.078.398 1.665 1.934 0 0 0-.736-.2 1.665 1.934 0 0 0-1.666 1.934 1.665 1.934 0 0 0 1.666 1.935 1.665 1.934 0 0 0 1.35-.803 1.665 1.665 0 0 0 .464.067 1.665 1.665 0 0 0 .654-.136v.077h4.263V11.73zm-7.87.827v1.42h3.046v-1.42z"/></clipPath></defs><path style="font-variation-settings:normal;vector-effect:none;fill:#212c52;fill-opacity:1;stroke:#000;stroke-width:0;stroke-linecap:butt;stroke-linejoin:miter;stroke-miterlimit:4;stroke-dasharray:none;stroke-dashoffset:0;stroke-opacity:0;-inkscape-stroke:none;stop-color:#000" d="M23.438-4.564c-.462.07-.794.718-.744 1.455.05.736.46 1.273.922 1.203l6.343-.956.24-.037 3.355-.506c.462-.07.873.468.923 1.204.05.736-.283 1.385-.745 1.455l-3.355.506-.24.036-2.285.345c-.461.07-.793.717-.744 1.454.05.736.461 1.273.923 1.203l2.525-.38 1.456-.22c.462-.07.873.467.923 1.203.05.737-.283 1.386-.744 1.455l-1.457.22-2.525.38-5.644.852c-.461.07-.793.718-.743 1.454.049.736.46 1.273.922 1.204l2.583-.39 5.586-.843 2.564-.386c.462-.07.874.467.923 1.203.05.736-.282 1.386-.744 1.455l-2.565.387-2.05.31c-.462.069-.794.718-.744 1.454.049.737.46 1.272.922 1.203l2.05-.31.718-.108c.462-.07.873.468.923 1.204.05.736-.283 1.385-.745 1.455l-.717.108-7.13 1.075c-.461.07-.793.72-.744 1.455.05.737.461 1.272.923 1.203l7.13-1.076 1.361-.205 2.922-.44 4.615-.697v-.011c.065-.008.127-.008.193-.018 2.054-.31 3.67-1.359 4.847-3.147 1.189-1.812 1.787-4.08 1.795-6.802l-3.486.526c-.103 1.322-.453 2.408-1.051 3.26-.6.831-1.4 1.322-2.4 1.473-1.325.2-2.402-.292-3.232-1.473-.831-1.202-1.322-2.924-1.473-5.165-.15-2.241.103-4.065.76-5.47.654-1.427 1.644-2.24 2.968-2.44 1-.15 1.85.103 2.55.759.698.635 1.185 1.584 1.46 2.849l3.488-.526c-.37-2.666-1.258-4.698-2.662-6.097-1.393-1.422-3.116-1.98-5.17-1.67-.066.01-.127.03-.192.043l-.001-.013-4.615.696-3.47.523zM24.273.68c-.45.086-.77.725-.722 1.45.05.737.461 1.273.923 1.204l1.212-.183c.462-.07.794-.719.744-1.455-.049-.736-.46-1.272-.922-1.202l-1.213.182-.022.004zm-2.622 11.135c-.462.07-.793.719-.744 1.455.05.736.46 1.272.922 1.202l2.006-.302.381-.058c.462-.07.793-.717.744-1.453-.05-.737-.46-1.274-.922-1.204zm4.776-.72c-.45.086-.771.727-.723 1.451.05.737.461 1.272.923 1.203l.18-.028c.463-.07.795-.717.745-1.453-.05-.737-.46-1.274-.922-1.204z" transform="translate(-20.902 7.011)"/><path style="font-variation-settings:normal;vector-effect:none;fill:#000;fill-opacity:.3;stroke:#000;stroke-width:0;stroke-linecap:butt;stroke-linejoin:miter;stroke-miterlimit:4;stroke-dasharray:none;stroke-dashoffset:0;stroke-opacity:0;-inkscape-stroke:none;stop-color:#000" d="M-22.79 9.168a.311.311 0 0 0-.29.341c.019.173.18.298.36.282l2.475-.224.094-.009 1.31-.118c.18-.016.34.11.36.282a.311.311 0 0 1-.291.34l-1.31.119-.093.009-.892.08a.311.311 0 0 0-.29.34c.019.173.18.299.36.283l.985-.09.568-.051c.18-.016.341.11.36.282a.311.311 0 0 1-.29.34l-.568.052-.986.09-2.203.198a.311.311 0 0 0-.29.34c.02.173.18.3.36.283l1.008-.091 2.18-.198 1.001-.09c.18-.017.341.11.36.282a.311.311 0 0 1-.29.34l-1.001.09-.8.073a.311.311 0 0 0-.29.341c.019.172.18.298.36.282l.8-.073.28-.025c.18-.016.34.11.36.282a.311.311 0 0 1-.29.34l-.28.026-2.783.252a.311.311 0 0 0-.29.34c.018.173.18.298.36.282l2.782-.252.531-.048 1.14-.103 1.802-.163v-.003l.075-.004c.802-.073 1.433-.318 1.892-.737.464-.425.698-.955.7-1.593l-1.36.123c-.04.31-.177.564-.41.764-.234.194-.546.31-.937.345-.517.046-.937-.069-1.261-.345-.325-.282-.516-.685-.575-1.21-.059-.525.04-.952.296-1.28.256-.335.642-.525 1.159-.572.39-.036.722.024.995.177.272.15.463.371.57.668l1.361-.124a2.168 2.168 0 0 0-1.039-1.427c-.543-.333-1.216-.464-2.018-.391-.025.002-.05.007-.074.01v-.003l-1.802.163-1.354.122zm.326 1.229a.31.31 0 0 0-.282.34c.02.172.18.297.36.281l.473-.043a.311.311 0 0 0 .29-.34.328.328 0 0 0-.36-.282l-.472.043h-.009zm-1.024 2.607a.311.311 0 0 0-.29.341c.02.172.18.298.36.282l.783-.071.149-.014a.311.311 0 0 0 .29-.34.328.328 0 0 0-.36-.282zm1.865-.168a.311.311 0 0 0-.283.34c.02.172.18.297.36.281l.071-.006a.311.311 0 0 0 .29-.34.328.328 0 0 0-.36-.283z" clip-path="url(#a)" transform="matrix(2.56215 0 0 4.27023 60.927 -36.704)"/></svg>